PathFileType	4	(X/Y/Z)	Walk7.trc
DataRate	CameraRate	NumFrames	NumMarkers	Units	OrigDataRate	OrigDataStartFrame	OrigNumFrames
200.000000	200.000000	9	59	mm	200.000000	420	533
Frame#	Times		LBHD		C7		T10		RBack		LPSI		RPSI		RCAR		LElbowM		LLFC		LFHD		LUA1		RElbowM		RUA1		RWRR		CLAV		LCAR		RFA1		LFA1		LWRU		RTH2		RTH3		RTB1		LACR1		RACR1		LWRR		RTB3		RToe		RMT1		RLFC		RTH4		RCAL		RMT5		RTB4		LTB3		RWRU		LTH1		RFHD		RBHD		RTB2		RTH1		LTH4		LTH3		LElbow		STRN		RMMAL		RElbow		LTH2		RASI		LTB2		RLMAL		LASI		LCAL		LMT1		LLMAL		LMT5		LMMAL		LToe		LTB1		LTB4
			X1	Y1	Z1	X2	Y2	Z2	X3	Y3	Z3	X4	Y4	Z4	X5	Y5	Z5	X6	Y6	Z6	X7	Y7	Z7	X8	Y8	Z8	X9	Y9	Z9	X10	Y10	Z10	X11	Y11	Z11	X12	Y12	Z12	X13	Y13	Z13	X14	Y14	Z14	X15	Y15	Z15	X16	Y16	Z16	X17	Y17	Z17	X18	Y18	Z18	X19	Y19	Z19	X20	Y20	Z20	X21	Y21	Z21	X22	Y22	Z22	X23	Y23	Z23	X24	Y24	Z24	X25	Y25	Z25	X26	Y26	Z26	X27	Y27	Z27	X28	Y28	Z28	X29	Y29	Z29	X30	Y30	Z30	X31	Y31	Z31	X32	Y32	Z32	X33	Y33	Z33	X34	Y34	Z34	X35	Y35	Z35	X36	Y36	Z36	X37	Y37	Z37	X38	Y38	Z38	X39	Y39	Z39	X40	Y40	Z40	X41	Y41	Z41	X42	Y42	Z42	X43	Y43	Z43	X44	Y44	Z44	X45	Y45	Z45	X46	Y46	Z46	X47	Y47	Z47	X48	Y48	Z48	X49	Y49	Z49	X50	Y50	Z50	X51	Y51	Z51	X52	Y52	Z52	X53	Y53	Z53	X54	Y54	Z54	X55	Y55	Z55	X56	Y56	Z56	X57	Y57	Z57	X58	Y58	Z58	X59	Y59	Z59

420	2.1	259.99	1460.2	-55.639	253.08	1331.2	15.064	230.61	1065.8	3.7495	237.5	1230	145.36	212.3	870.76	-42.419	203.65	891.63	54.546	540.45	768.92	284.78	271.79	950.58	-195.47	500.28	448.35	-132.2	430.66	1490.8	-40.029	334.27	1103.7	-240.71	333.12	933.04	217.08	365.86	1124.2	247.67	544.35	816.36	240.17	383.35	1260.4	15.225	418.63	713.9	-320.16	423.79	864.18	286.07	329.12	867.97	-295.32	364.87	750.04	-317.25	374.53	628.81	156.49	281.07	545.68	163.58	258.04	323.1	53.4	333.15	1273.1	-152.28	334.45	1275.6	165.79	420.87	751.24	-269.11	210.81	143.49	45.224	306.55	23.966	17.633	247.9	43.243	15.834	268.45	446.36	143.16	304.32	634.65	190.15	97.226	50.599	67.813	232.43	32.149	73.699	228.19	235.72	52.344	633.85	187.83	-49.665	484.59	775.35	259.38	403.2	723.13	-189.77	437.73	1502	36.078	261.76	1469.4	67.586	209.99	236.32	122.49	328.54	716.36	218.74	447.07	642.13	-166.12	484.7	558.79	-143.84	299.13	986.4	-261.06	448.58	1155.8	9.6396	158	78.823	8.3924	373.66	982.18	288.88	499.04	681.36	-131.61	277.68	877.97	149.79	567.38	260.29	-118	162.31	67.868	88.763	414.13	847.28	-156.51	596.72	28.497	-36.525	734.41	96.825	-57.403	619.31	75.7	-85.74	711.42	72.024	-106.76	646.63	91.172	-13.024	779.87	99.001	-79.299	579.56	362.19	-58.626	597.32	271.8	-54.273
421	2.105	265.65	1459.2	-56.062	258.73	1330.1	14.545	236.4	1064.7	3.1779	243.16	1228.9	144.84	218.39	869.97	-43.31	209.36	890.97	53.617	547.69	768.42	284.03	277.03	949.55	-195.84	506.37	447.35	-131.73	436.35	1489.8	-40.462	339.44	1102.7	-241.26	339.7	931.9	216.73	372.08	1123.2	247.07	551.3	815.75	239.28	389.06	1259.4	14.728	423.33	712.76	-320.76	430.83	863.4	285.54	334.07	866.95	-295.83	369.62	749.02	-317.83	378.79	627.85	156.98	284.92	545.15	163.44	260.75	322.58	53.051	338.86	1272.1	-152.8	340.06	1274.5	165.33	425.69	750.11	-269.72	211.84	143.4	44.888	306.65	23.986	17.546	248.05	43.235	15.552	272.03	445.83	142.91	308.34	634.03	190.13	97.408	51.541	67.551	232.53	32.244	73.405	230.12	235.48	51.945	643.17	188.49	-49.006	491.74	774.63	258.82	408.59	721.72	-189.83	443.42	1500.9	35.638	267.45	1468.4	67.165	211.98	236.29	122.2	332.73	715.66	218.74	452.62	640.83	-166.13	490.4	557.68	-143.63	304.21	985.41	-261.49	454.38	1154.9	9.1876	158.43	79.246	8.1133	380.5	981.24	288.26	504.73	680.22	-132	282.35	877.71	149.37	576.17	260.3	-117.54	162.69	68.324	88.524	420.75	846.2	-156.42	607.97	28.454	-36.629	745.14	98.395	-56.367	630.4	76.215	-85.538	722.64	73.7	-105.95	656.96	91.826	-12.535	790.62	101.17	-77.752	586.57	362.2	-57.761	605.52	272	-53.579
422	2.11	271.34	1458.2	-56.523	264.39	1329.1	13.979	242.23	1063.7	2.5839	248.83	1227.8	144.28	224.51	869.21	-44.2	215.12	890.28	52.697	554.87	767.94	283.28	282.34	948.52	-196.19	512.63	446.46	-131.27	442.04	1488.8	-40.925	344.66	1101.8	-241.83	346.27	930.8	216.34	378.29	1122.3	246.44	558.21	815.15	238.37	394.79	1258.5	14.194	428.05	711.64	-321.37	437.82	862.64	284.96	339.04	865.95	-296.34	374.39	748.01	-318.4	383.11	626.91	157.46	288.84	544.62	163.29	263.55	322.05	52.707	344.6	1271.1	-153.36	345.67	1273.5	164.82	430.54	748.99	-270.34	212.91	143.32	44.562	306.74	24.007	17.448	248.21	43.238	15.273	275.7	445.29	142.67	312.44	633.42	190.11	97.611	52.552	67.313	232.65	32.353	73.12	232.11	235.24	51.55	651.96	188.96	-48.264	498.83	773.93	258.24	414.04	720.39	-189.85	449.13	1499.9	35.168	273.14	1467.4	66.705	214.03	236.29	121.93	336.98	714.97	218.73	458.27	639.64	-166.13	496.24	556.69	-143.42	309.31	984.44	-261.92	460.2	1154	8.7099	158.87	79.713	7.8476	387.31	980.33	287.61	510.52	679.2	-132.4	287.42	877.44	148.95	584.64	260.24	-117.05	163.09	68.807	88.275	427.43	845.18	-156.27	618.31	28.365	-36.663	755.08	99.6	-55.213	640.7	76.595	-85.253	733.02	75.041	-105.02	666.48	92.289	-11.95	800.59	102.85	-76.071	593.47	362.09	-56.877	613.4	272.07	-52.839
423	2.115	277.04	1457.3	-57.022	270.07	1328.1	13.367	248.09	1062.7	1.9702	254.53	1226.7	143.67	230.67	868.48	-45.084	220.94	889.59	51.786	561.97	767.46	282.53	287.73	947.51	-196.52	519.05	445.68	-130.82	447.76	1487.9	-41.42	349.93	1100.8	-242.42	352.82	929.74	215.89	384.48	1121.4	245.78	565.06	814.56	237.45	400.54	1257.6	13.623	432.79	710.53	-321.98	444.76	861.91	284.36	344.04	864.97	-296.85	379.18	747.01	-318.98	387.48	626	157.94	292.86	544.08	163.11	266.43	321.51	52.375	350.37	1270.1	-153.96	351.3	1272.5	164.28	435.42	747.9	-270.96	214.02	143.27	44.252	306.83	24.028	17.341	248.37	43.252	15.002	279.48	444.76	142.43	316.6	632.81	190.09	97.837	53.637	67.106	232.78	32.476	72.848	234.16	235.02	51.167	660.2	189.21	-47.437	505.86	773.25	257.63	419.57	719.17	-189.83	454.86	1499	34.668	278.85	1466.4	66.207	216.14	236.31	121.69	341.29	714.3	218.71	464.04	638.57	-166.11	502.24	555.84	-143.2	314.44	983.48	-262.36	466.04	1153.2	8.2061	159.34	80.227	7.6024	394.09	979.48	286.93	516.42	678.31	-132.79	292.89	877.15	148.51	592.78	260.1	-116.5	163.51	69.322	88.025	434.17	844.2	-156.09	627.74	28.209	-36.625	764.22	100.4	-53.945	650.18	76.812	-84.883	742.58	76.013	-103.97	675.21	92.532	-11.271	809.79	104.01	-74.265	600.25	361.87	-55.973	620.96	271.99	-52.053
424	2.12	282.76	1456.4	-57.558	275.76	1327.1	12.712	253.99	1061.7	1.3395	260.24	1225.7	143.02	236.86	867.78	-45.96	226.82	888.89	50.888	568.99	766.99	281.78	293.2	946.52	-196.84	525.62	445	-130.36	453.49	1486.9	-41.947	355.26	1099.9	-243.03	359.35	928.74	215.38	390.66	1120.5	245.09	571.86	813.97	236.53	406.32	1256.8	13.016	437.55	709.44	-322.59	451.65	861.22	283.71	349.07	864.01	-297.36	383.99	746.03	-319.55	391.92	625.1	158.39	296.96	543.54	162.93	269.4	320.96	52.062	356.18	1269.2	-154.6	356.94	1271.6	163.69	440.33	746.82	-271.59	215.16	143.24	43.967	306.9	24.048	17.226	248.55	43.279	14.743	283.35	444.22	142.2	320.84	632.2	190.06	98.09	54.8	66.934	232.93	32.615	72.594	236.28	234.8	50.801	667.9	189.22	-46.529	512.82	772.59	256.99	425.21	718.04	-189.78	460.59	1498	34.141	284.57	1465.5	65.67	218.31	236.37	121.47	345.67	713.63	218.67	469.95	637.61	-166.05	508.4	555.11	-142.95	319.61	982.55	-262.79	471.92	1152.4	7.6759	159.83	80.794	7.3835	400.84	978.67	286.23	522.44	677.55	-133.14	298.75	876.85	148.07	600.59	259.86	-115.91	163.97	69.874	87.787	440.96	843.28	-155.88	636.24	27.972	-36.516	772.59	100.78	-52.568	658.85	76.846	-84.428	751.31	76.587	-102.8	683.14	92.533	-10.502	818.22	104.62	-72.35	606.92	361.52	-55.042	628.19	271.77	-51.218
425	2.125	288.5	1455.6	-58.131	281.46	1326.2	12.014	259.94	1060.7	0.69437	265.98	1224.8	142.34	243.09	867.12	-46.825	232.75	888.19	50.004	575.93	766.53	281.02	298.73	945.55	-197.14	532.34	444.42	-129.91	459.24	1486.1	-42.504	360.66	1099	-243.65	365.86	927.8	214.82	396.82	1119.7	244.38	578.61	813.4	235.61	412.12	1256	12.371	442.34	708.37	-323.21	458.48	860.56	283.02	354.12	863.06	-297.87	388.83	745.06	-320.12	396.44	624.23	158.82	301.16	543	162.73	272.46	320.41	51.77	362.01	1268.3	-155.29	362.61	1270.7	163.07	445.26	745.77	-272.23	216.35	143.26	43.71	306.97	24.068	17.103	248.75	43.318	14.498	287.33	443.69	141.98	325.17	631.6	190.03	98.372	56.047	66.802	233.1	32.769	72.363	238.46	234.61	50.458	675.07	188.98	-45.544	519.72	771.96	256.33	430.99	717.02	-189.69	466.34	1497.1	33.586	290.3	1464.6	65.095	220.53	236.44	121.28	350.13	712.98	218.61	476	636.77	-165.96	514.73	554.51	-142.68	324.81	981.64	-263.22	477.83	1151.7	7.1187	160.34	81.418	7.1956	407.56	977.92	285.49	528.59	676.92	-133.44	305.02	876.53	147.63	608.07	259.52	-115.26	164.45	70.472	87.573	447.8	842.4	-155.65	643.84	27.647	-36.338	780.18	100.72	-51.092	666.71	76.687	-83.893	759.23	76.749	-101.53	690.3	92.28	-9.6514	825.91	104.67	-70.343	613.48	361.04	-54.081	635.1	271.38	-50.333
426	2.13	294.25	1454.8	-58.741	287.18	1325.3	11.276	265.94	1059.8	0.037359	271.74	1223.9	141.61	249.35	866.48	-47.674	238.75	887.5	49.136	582.79	766.08	280.26	304.32	944.62	-197.44	539.19	443.93	-129.44	465.01	1485.2	-43.091	366.11	1098.2	-244.29	372.34	926.93	214.2	402.97	1119	243.64	585.3	812.85	234.68	417.95	1255.2	11.689	447.14	707.32	-323.83	465.26	859.95	282.3	359.2	862.15	-298.37	393.69	744.12	-320.68	401.04	623.38	159.21	305.47	542.45	162.53	275.61	319.86	51.502	367.88	1267.4	-156.01	368.3	1269.9	162.4	450.23	744.75	-272.88	217.57	143.31	43.485	307.02	24.088	16.971	248.95	43.372	14.272	291.41	443.16	141.78	329.6	631	189.99	98.688	57.385	66.713	233.28	32.939	72.156	240.72	234.43	50.142	681.72	188.49	-44.49	526.54	771.36	255.64	436.93	716.1	-189.57	472.1	1496.3	33.005	296.03	1463.8	64.485	222.81	236.55	121.12	354.68	712.34	218.52	482.2	636.04	-165.83	521.22	554.02	-142.38	330.05	980.76	-263.65	483.77	1151.1	6.5337	160.88	82.104	7.0423	414.24	977.22	284.72	534.87	676.4	-133.67	311.68	876.2	147.17	615.22	259.07	-114.56	164.97	71.126	87.396	454.68	841.56	-155.41	650.55	27.235	-36.1	787.02	100.22	-49.528	673.8	76.332	-83.282	766.35	76.496	-100.17	696.71	91.772	-8.7273	832.88	104.14	-68.262	619.93	360.44	-53.089	641.7	270.83	-49.401
427	2.135	300.02	1454.1	-59.388	292.91	1324.4	10.5	272	1058.9	-0.62885	277.54	1223	140.86	255.66	865.88	-48.506	244.81	886.83	48.287	589.55	765.64	279.51	309.98	943.72	-197.72	546.15	443.52	-128.95	470.79	1484.5	-43.708	371.64	1097.4	-244.94	378.8	926.14	213.53	409.11	1118.3	242.89	591.94	812.31	233.76	423.8	1254.6	10.971	451.97	706.29	-324.45	471.96	859.37	281.55	364.31	861.26	-298.87	398.58	743.21	-321.24	405.72	622.54	159.56	309.88	541.91	162.32	278.86	319.3	51.256	373.77	1266.6	-156.76	374.03	1269.2	161.7	455.24	743.75	-273.53	218.85	143.4	43.293	307.07	24.107	16.832	249.17	43.441	14.066	295.6	442.64	141.6	334.14	630.42	189.92	99.044	58.82	66.667	233.49	33.126	71.978	243.05	234.27	49.853	687.88	187.77	-43.376	533.29	770.78	254.93	443.05	715.3	-189.42	477.87	1495.5	32.398	301.78	1463.1	63.84	225.16	236.68	120.98	359.33	711.72	218.41	488.57	635.42	-165.65	527.86	553.64	-142.05	335.34	979.91	-264.08	489.74	1150.5	5.9207	161.46	82.856	6.926	420.88	976.59	283.93	541.28	676	-133.82	318.72	875.86	146.72	622.04	258.51	-113.8	165.52	71.844	87.265	461.59	840.77	-155.17	656.42	26.744	-35.811	793.15	99.282	-47.887	680.13	75.787	-82.606	772.72	75.834	-98.724	702.4	91.016	-7.741	839.16	103.06	-66.125	626.25	359.73	-52.065	647.99	270.14	-48.425
428	2.14	305.8	1453.4	-60.072	298.65	1323.6	9.6861	278.12	1058	-1.3014	283.37	1222.2	140.07	262	865.32	-49.318	250.93	886.18	47.459	596.23	765.22	278.75	315.68	942.87	-198.01	553.19	443.16	-128.46	476.59	1483.7	-44.352	377.23	1096.6	-245.6	385.22	925.42	212.81	415.23	1117.7	242.11	598.51	811.79	232.84	429.68	1253.9	10.218	456.83	705.28	-325.07	478.6	858.83	280.77	369.46	860.4	-299.37	403.5	742.32	-321.79	410.51	621.73	159.86	314.41	541.37	162.11	282.22	318.75	51.031	379.69	1265.8	-157.55	379.78	1268.5	160.96	460.28	742.79	-274.18	220.17	143.55	43.134	307.1	24.125	16.687	249.41	43.524	13.88	299.92	442.12	141.42	338.79	629.83	189.83	99.446	60.362	66.665	233.71	33.331	71.831	245.45	234.14	49.592	693.57	186.83	-42.214	539.96	770.24	254.19	449.36	714.61	-189.26	483.65	1494.7	31.769	307.54	1462.3	63.16	227.59	236.84	120.86	364.09	711.11	218.26	495.09	634.91	-165.42	534.63	553.35	-141.68	340.68	979.09	-264.52	495.74	1150	5.2795	162.07	83.682	6.8477	427.48	976.01	283.1	547.83	675.69	-133.87	326.15	875.51	146.25	628.54	257.86	-112.99	166.12	72.635	87.186	468.52	840.03	-154.94	661.48	26.192	-35.483	798.61	97.942	-46.184	685.76	75.069	-81.874	778.38	74.784	-97.209	707.42	90.029	-6.7056	844.81	101.45	-63.947	632.45	358.91	-51.013	653.99	269.3	-47.411
